<?xml version="1.0" encoding="utf-8"?>
<!-- Generator: Avocode 2.6.0 - http://avocode.com -->
<svg height="76" width="76" xmlns:xlink="http://www.w3.org/1999/xlink" xmlns="http://www.w3.org/2000/svg" viewBox="0 0 76 76">
    <path stroke-linejoin="miter" stroke-linecap="butt" stroke-width="2" stroke="#a46393" fill="none" fill-rule="evenodd" d="M 53.72 37.69 C 53.72 46.55 46.55 53.72 37.69 53.72 C 28.84 53.72 21.66 46.55 21.66 37.69 C 21.66 28.84 28.84 21.66 37.69 21.66 C 46.55 21.66 53.72 28.84 53.72 37.69 L 53.72 37.69 Z M 53.72 37.69" />
    <path stroke-linejoin="miter" stroke-linecap="butt" stroke-width="2" stroke="#a46393" fill="none" fill-rule="evenodd" d="M 74.38 37.69 C 74.38 57.96 57.96 74.38 37.69 74.38 C 17.43 74.38 1 57.96 1 37.69 C 1 17.43 17.43 1 37.69 1 C 57.96 1 74.38 17.43 74.38 37.69 L 74.38 37.69 Z M 74.38 37.69" />
    <path stroke-linejoin="miter" stroke-linecap="butt" stroke-width="2" stroke="#a46393" fill="none" fill-rule="evenodd" d="M 37.69 7.17 C 45.72 7.17 53.02 10.26 58.47 15.33" />
</svg>