<svg id="SvgjsSvg1000" xmlns="http://www.w3.org/2000/svg" version="1.1" xmlns:xlink="http://www.w3.org/1999/xlink" xmlns:svgjs="http://svgjs.com/svgjs" width="14" height="14"><defs id="SvgjsDefs1001"></defs><path id="SvgjsPath1007" d="M1477.92 26.69C1475.8400000000001 26.69 1474.15 25 1474.15 22.92C1474.15 20.840000000000003 1475.8400000000001 19.150000000000002 1477.92 19.150000000000002C1480 19.150000000000002 1481.69 20.840000000000003 1481.69 22.92C1481.69 25 1480 26.69 1477.92 26.69ZM1485.69 29.17L1482.8 26.28C1483.48 25.3 1483.85 24.12 1483.85 22.92C1483.85 19.650000000000002 1481.1999999999998 17 1477.9199999999998 17C1474.6499999999999 17 1471.9999999999998 19.65 1471.9999999999998 22.92C1471.9999999999998 26.200000000000003 1474.6499999999999 28.85 1477.9199999999998 28.85C1479.12 28.85 1480.3 28.48 1481.2799999999997 27.8L1484.1699999999998 30.68C1484.36 30.88 1484.6399999999999 31 1484.9199999999998 31C1485.5099999999998 31 1485.9999999999998 30.51 1485.9999999999998 29.92C1485.9999999999998 29.64 1485.8799999999999 29.360000000000003 1485.6899999999998 29.17Z " fill="#a46393" fill-opacity="1" transform="matrix(1,0,0,1,-1472,-17)"></path></svg>