<svg id="SvgjsSvg1012" xmlns="http://www.w3.org/2000/svg" version="1.1" xmlns:xlink="http://www.w3.org/1999/xlink" xmlns:svgjs="http://svgjs.com/svgjs" width="16" height="14"><defs id="SvgjsDefs1013"></defs><path id="SvgjsPath1014" d="M1507.92 476.08C1507.25 476.08 1506.69 476.63 1506.69 477.31C1506.69 477.98 1507.25 478.54 1507.92 478.54C1508.6000000000001 478.54 1509.15 477.98 1509.15 477.31C1509.15 476.63 1508.6000000000001 476.08 1507.92 476.08ZM1516.54 476.08C1515.87 476.08 1515.31 476.63 1515.31 477.31C1515.31 477.98 1515.87 478.54 1516.54 478.54C1517.21 478.54 1517.77 477.98 1517.77 477.31C1517.77 476.63 1517.21 476.08 1516.54 476.08ZM1519 471.77C1519 472.08 1518.76 472.34999999999997 1518.45 472.38L1508.41 473.56C1508.46 473.78000000000003 1508.5400000000002 474 1508.5400000000002 474.23C1508.5400000000002 474.45000000000005 1508.4 474.65000000000003 1508.3100000000002 474.85L1517.15 474.85C1517.49 474.85 1517.77 475.13 1517.77 475.46000000000004C1517.77 475.8 1517.49 476.08000000000004 1517.15 476.08000000000004L1507.3100000000002 476.08000000000004C1506.9700000000003 476.08000000000004 1506.6900000000003 475.80000000000007 1506.6900000000003 475.46000000000004C1506.6900000000003 475.16 1507.1300000000003 474.44000000000005 1507.2800000000002 474.14000000000004L1505.5800000000002 466.23L1503.6200000000001 466.23C1503.2800000000002 466.23 1503.0000000000002 465.95000000000005 1503.0000000000002 465.62C1503.0000000000002 465.28000000000003 1503.2800000000002 465 1503.6200000000001 465L1506.0800000000002 465C1506.7200000000003 465 1506.7400000000002 465.77 1506.8400000000001 466.23L1518.38 466.23C1518.72 466.23 1519 466.51 1519 466.85Z " fill="#a46393" fill-opacity="1" transform="matrix(1,0,0,1,-1503,-465)"></path></svg>