<svg id="Objects" xmlns="http://www.w3.org/2000/svg" viewBox="0 0 405.07 148.95"><defs><style>.cls-1{fill:#fff;stroke:#000;stroke-miterlimit:10;}</style></defs><title>car-1</title><path class="cls-1" d="M383.61,57.63c-7,0-12.72-4.35-12.72-9.71s5.7-9.71,12.72-9.71Z"/><path class="cls-1" d="M285,109.74s5-.35,21.11-8.64a40.23,40.23,0,1,0,63.54-25.22c15.3,2.18,30.59,12.66,33.72,16.76,3.91,5.11,1.49-40.83-51.7-29.44-38.51,8.25-89.11,38.66-111.44,46.55Zm59.22-7.06L334,85a77.83,77.83,0,0,1,10.19-5Zm-2.57,1.48-20.09-11.6c3.53-2.06,6.7-4.1,9.92-6Zm29.3-12.24-21.2,12.24L362,83A30.24,30.24,0,0,1,370.92,91.93Zm4.78,14.81H351.2l21.22-12.25A29.86,29.86,0,0,1,375.7,106.74Zm-3.29,15.2L351.2,109.7h24.49A29.9,29.9,0,0,1,372.4,121.94ZM362,133.47l-12.24-21.21,21.21,12.25A30.13,30.13,0,0,1,362,133.47Zm-14.81-19.72L359.4,135a29.92,29.92,0,0,1-12.25,3.28Zm0-19V79c.64-.22,1.29-.44,2-.65a29.82,29.82,0,0,1,10.3,3.12l-12.25,21.22Zm-31.55,13.49c0,.5,0,1,0,1.48h24.5L318.92,122q.68,1.32,1.49,2.57l21.21-12.25-12.25,21.22a29.11,29.11,0,0,0,2.57,1.48l12.25-21.21v24.5A30.07,30.07,0,0,1,315.59,108.22Zm0-1.48a30,30,0,0,1,3.28-12.25l21.22,12.25Z"/><path class="cls-1" d="M364.65,59.51a81.65,81.65,0,0,0-13.42,1.78c-25,5.36-54.88,19.88-79.06,31.7V38.33H292V58.47a2.31,2.31,0,0,0,4.62,0V38.33H302V58.47a2.31,2.31,0,0,0,4.62,0V38.33H312V58.47a2.31,2.31,0,0,0,4.62,0V38.33h5.4V58.47a2.31,2.31,0,0,0,4.62,0V38.33h5.39V58.47a2.31,2.31,0,0,0,4.62,0V38.33h33.12l-2.11,19.3A22.66,22.66,0,0,1,364.65,59.51Z"/><path class="cls-1" d="M1.74,92.63c3.85-5,26.13-19.76,44.17-16.75a40.24,40.24,0,1,0,64.18,32.33c0-.62,0-1.24-.05-1.86,7.47,3.2,10.08,3.38,10.08,3.38h44.77c-22.33-7.89-72.93-38.3-111.45-46.55C.25,51.8-2.17,97.74,1.74,92.63Zm66.63-9.08v19.13L56.12,81.48a30.09,30.09,0,0,1,4-1.69A73.22,73.22,0,0,1,68.37,83.55Zm15.29,9.08q2.69,1.56,5.13,2.94L73.9,104.17l7.45-12.9Zm16.23,14.1H75.39L91.8,97.25q4,2.19,7.26,3.88A30.13,30.13,0,0,1,99.88,106.74Zm-3.29,15.2L75.39,109.7H99.87A29.89,29.89,0,0,1,96.59,121.94ZM86.15,133.47,73.9,112.26l21.22,12.25A30.2,30.2,0,0,1,86.15,133.47ZM71.33,113.75,83.59,135a30,30,0,0,1-12.25,3.28Zm0-19V85.19c2.52,1.45,5,3,7.49,4.53l-7.49,13Zm-31.52,15h24.5L43.1,122q.68,1.32,1.48,2.57L65.8,112.26,53.55,133.48A29.27,29.27,0,0,0,56.12,135l12.25-21.21v24.5a30.07,30.07,0,0,1-28.59-30C39.78,108.71,39.8,109.21,39.82,109.7ZM43.1,94.48l21.21,12.25H39.82A30,30,0,0,1,43.1,94.48Zm1.5-2.56a30.27,30.27,0,0,1,9-9L65.8,104.17Z"/><path class="cls-1" d="M165.53,107.91c-7.68-2.72-18.83-8.17-31.73-14.48-24.34-11.9-54.63-26.71-80-32.14a78.31,78.31,0,0,0-16.3-1.87,53.7,53.7,0,0,0-7.85.57c-2.31-1.5-3.63-3.2-3.21-5.09,1.95-8.76,52.47-11.56,52.47-11.56L81.46,48s52.81.84,57.94,0c3.56-.58,6.56-5,8.07-7.63L83.5,47,78.7,39.8h69.08l.35-.66L71.49,27.78l-3-12L148.39,38.6l.13-.27h56.75l3-11.88a1.73,1.73,0,0,1,3.35.86l-2.81,11h18.33L207.72,4.38a2.59,2.59,0,0,1,4.5-2.58l20.93,36.53h34.39V95.25c-11.32,5.53-21.08,10.21-28,12.66l-4.74,1.67c-16,.08-41.19.19-64.09.15Z"/></svg>