<?xml version="1.0" encoding="utf-8"?>
<!-- Generator: Avocode 2.6.0 - http://avocode.com -->
<svg height="56" width="224" xmlns:xlink="http://www.w3.org/1999/xlink" xmlns="http://www.w3.org/2000/svg" viewBox="0 0 224 56">
    <path fill="#a46393" fill-rule="evenodd" d="M 0 0 L 0 9.99 C 0 19.97 5.14 23.98 8.51 24.86 C 9.84 25.23 10.83 26.42 10.83 27.86 C 10.83 29.3 9.84 30.5 8.5 30.84 C 5.14 31.74 0 35.75 0 45.73 L 0 55.72 C 0 55.72 41.81 52.36 111.53 52.36 C 185.55 52.36 224 55.72 224 55.72 L 224 45.73 C 224 35.75 218.86 31.74 215.49 30.86 C 214.16 30.49 213.17 29.3 213.17 27.86 C 213.17 26.42 214.16 25.22 215.5 24.88 C 218.86 23.98 224 19.97 224 9.99 L 224 0 C 224 0 182.56 3.36 111.53 3.36 C 49.67 3.36 0 0 0 0 Z M 0 0" />
</svg>